<?xml version="1.0" encoding="utf-8"?>
<!-- Generator: Adobe Illustrator 15.1.0, SVG Export Plug-In . SVG Version: 6.00 Build 0)  -->
<!DOCTYPE svg PUBLIC "-//W3C//DTD SVG 1.1//EN" "http://www.w3.org/Graphics/SVG/1.1/DTD/svg11.dtd">
<svg version="1.1" id="Layer_1" xmlns="http://www.w3.org/2000/svg" xmlns:xlink="http://www.w3.org/1999/xlink" x="0px" y="0px"
	 width="254.906px" height="97.495px" viewBox="0 0 254.906 97.495" enable-background="new 0 0 254.906 97.495"
	 xml:space="preserve">
<g>
	<defs>
		<rect id="SVGID_1_" x="44" width="210.906" height="97.495"/>
	</defs>
	<clipPath id="SVGID_2_">
		<use xlink:href="#SVGID_1_"  overflow="visible"/>
	</clipPath>
	<path clip-path="url(#SVGID_2_)" d="M93.604,17.94C87.853,6.577,73.917-0.48,61.426,3.653C47.03,8.417,46.64,28.692,52.228,40.138
		c1.312,2.689,5.596,7.597,10.145,13.242c-6.898,3.696-12.608,10.226-14.302,17.334c-2.859,11.996,8.11,22.126,19.766,20.7
		c5.164-0.633,10.079-3.477,12.243-8.342c2.776-6.241,0.552-12.946-2.557-18.586c-1.551-2.815-3.481-5.468-5.555-8.059
		c1.362-0.203,2.748-0.276,4.149-0.167c3.835,0.299,3.73-5.527,0-5.926c-2.8-0.299-5.685,0.04-8.498,0.874
		c-6.344-7.485-12.577-15.017-12.827-25.115c-0.11-4.424,0.711-9.727,3.467-13.323c2.799-3.651,7.42-4.767,11.857-4.652
		c8.28,0.215,15.813,4.759,20.007,11.856C91.452,22.224,94.769,20.244,93.604,17.94 M69.837,84.869
		c-9.66,3.644-19.788-6.008-14.859-15.666c2.401-4.705,6.427-8.706,11.188-10.98C74.272,68.947,80.8,80.735,69.837,84.869"/>
	<path clip-path="url(#SVGID_2_)" d="M102.691,35c-0.786-0.922-2.577-1.163-3.579-0.462c-5.771,4.035-9.208,10.261-11.288,16.875
		c-2.019,6.419-3.625,14.965-1.017,21.435c0.686,1.698,3.141,1.52,3.26-0.441c0.291-4.819,0.601-10.165,1.659-15.268
		c3.476-0.497,6.909-0.808,10.423-0.865c0.03-0.001,0.056-0.009,0.086-0.01c-0.172,3.563-0.571,7.044-0.739,9.976
		c-0.22,3.832,5.75,3.823,5.962,0C108.028,56.001,109.882,43.436,102.691,35 M92.997,52.355c1.404-4.228,3.547-8.089,6.943-11.06
		c1.556,2.816,2.169,6.244,2.328,9.809c-0.042,0-0.077-0.008-0.119-0.006C99.087,51.26,95.999,51.66,92.997,52.355"/>
	<path clip-path="url(#SVGID_2_)" d="M112.038,36.239c-0.738,9.202-0.734,18.964,0.008,28.167c0.276,3.427,5.513,3.53,5.419,0
		c-0.249-9.354-0.538-18.832-1.171-28.167C116.108,33.494,112.257,33.509,112.038,36.239"/>
	<path clip-path="url(#SVGID_2_)" d="M142.89,49.463c1.287-0.774,2.444-1.715,3.376-2.891c2.735-3.452,2.437-8.037-0.352-11.377
		c-6.065-7.261-21.107-4.04-25.208,3.973c-0.227,0.443-0.269,0.883-0.191,1.282c-0.039,0.144-0.068,0.294-0.071,0.457
		c-0.097,5.766,0.541,11.521,0.73,17.289c-0.685,0.573-1.063,1.495-0.722,2.698c0.225,0.916,0.512,1.812,0.861,2.688
		c0.992,2.767,5.846,2.621,5.52-0.747c-0.705-7.285-1.348-14.645-2.512-21.875c3.713-3.015,11.191-5.758,15.517-3.266
		c3.606,2.077,1.711,5.799-1.222,7.229c-2.696,1.314-5.963,1.825-8.894,2.342c-3.808,0.671-2.161,6.358,1.59,5.767
		c5.16-0.812,11.007,0.649,9.577,7.453c-0.79,3.756,4.975,5.361,5.767,1.59C147.66,57.3,146.538,52.845,142.89,49.463"/>
	<path clip-path="url(#SVGID_2_)" d="M175.083,30.156c-0.112-2.821-4.203-2.802-4.369,0c-0.347,5.874-0.361,11.781-0.209,17.683
		c-4.73,0.264-9.502,0.134-14.198,0.785c-0.414-5.438-1.086-10.874-1.739-16.214c-0.298-2.443-4.075-2.588-3.937,0
		c0.511,9.641,0.206,19.241,0.474,28.871c0.101,3.573,5.428,3.573,5.55,0c0.096-2.776,0.047-5.571-0.083-8.371
		c4.609-0.037,9.253-0.367,13.816,0.421c0.105,0.019,0.199,0.013,0.301,0.023c0.117,2.835,0.261,5.665,0.42,8.488
		c0.202,3.587,5.88,3.55,5.569,0C175.751,51.284,175.504,40.739,175.083,30.156"/>
	<path clip-path="url(#SVGID_2_)" d="M198.996,29.252c-3.116-0.462-6.215-0.731-9.365-0.804c-2.315-0.054-5.884-0.639-7.976,0.711
		c-3.741,2.415-3.104,11.714-3.126,15.429c-0.019,3.37,0.174,6.735,0.415,10.095c0.166,2.325-0.022,5.335,1.197,7.436
		c2.553,4.4,9.41,2.658,13.29,1.622c3.691-0.985,2.134-6.582-1.575-5.713c-1.018,0.238-5.632,1.765-6.451,0.854
		c-0.625-0.692-0.465-3.472-0.52-4.199c-0.083-1.096-0.157-2.191-0.225-3.287c1.801-0.045,3.602-0.087,5.4-0.151
		c3.521-0.125,3.429-5.755,0-5.419c-1.874,0.184-3.746,0.391-5.618,0.594c-0.019-0.916-0.023-1.832-0.013-2.748
		c0.022-1.826,0.099-3.655,0.284-5.472c0.124-0.947,0.249-1.893,0.373-2.839c0.484-1.321,1.415-1.803,2.788-1.446
		c3.123-0.798,7.331-0.177,10.521-0.243C200.818,33.622,201.597,29.638,198.996,29.252"/>
	<path clip-path="url(#SVGID_2_)" d="M224.083,45.17c-0.136-4.432,0.253-12.844-3.882-15.606c-0.897-0.6-2.059-0.46-2.967,0.001
		c-5.464,2.771-10.943,10.377-13.919,15.594c-0.509,0.892-0.972,1.826-1.414,2.778c-1.646,0.192-3.289,0.426-4.845,0.866
		c-2.095,0.592-1.54,3.485,0.494,3.646c0.845,0.066,1.7,0.096,2.56,0.109c-1.209,3.842-1.837,7.894-1.649,11.784
		c0.131,2.704,3.835,2.598,4.125,0.001c0.456-4.085,1.334-8.127,2.891-11.911c2.939-0.155,5.889-0.388,8.755-0.412
		c3.338-0.028,3.269-4.904,0-5.138c-1.985-0.142-4.009,0.043-6.011,0.291c2.141-3.356,5.471-8.081,9.005-10.911
		c0.226,1.136,0.397,2.315,0.536,3.462c0.35,2.911,0.445,5.873,0.407,8.802c-0.072,5.53-0.682,11.037-1.577,16.49
		c-0.615,3.755,5.134,5.374,5.75,1.593C223.496,59.523,224.304,52.36,224.083,45.17"/>
	<path clip-path="url(#SVGID_2_)" d="M242.968,37.074c-2.768-1.75-6.804-3.284-10.128-2.537c-1.069,0.24-1.864,0.666-2.468,1.23
		c-1.15-1.016-3.36-0.585-3.257,1.384c0.212,4.023,0.308,7.98,0.322,11.959c-0.533,6.315-0.66,12.689-0.416,18.981
		c0.001,0.023,0.009,0.044,0.01,0.067c-0.003,0.084-0.007,0.164-0.01,0.247h0.043c0.437,3.215,5.323,3.243,5.619,0h0.029
		c-0.056-7,0.186-13.9,0.825-20.734c0.147-1.58,0.314-3.236,0.531-4.807c0.319-2.331-0.032-2.672,2.345-2.157
		c3.603,0.781,6.697,3.718,8.448,6.839c4.14,7.381,1.812,17.982-3.09,24.487c-5.083,6.743-14.168,5.745-21.639,4.903
		c-33.264-3.746-67.445-8.232-100.897-3.906c-8.417,1.09-16.779,2.899-24.726,5.925c-4.124,1.569-9.678,3.282-12.728,6.614
		c-2.595,2.835,1.624,7.076,4.23,4.229c3.702-4.044,12.384-6.045,17.398-7.491c9.75-2.812,19.814-4.034,29.929-4.471
		c20.572-0.891,41.187,0.097,61.653,2.216c9.909,1.025,19.815,2.631,29.754,3.312c7.297,0.5,15.253-0.382,20.484-6.062
		C255.221,66.456,256.45,45.597,242.968,37.074"/>
</g>
<path d="M33.697,9.253c-0.859-1.029-2.229-1.479-3.531-1.155c-1.223,0.304-30.916,5.897-27.5,74.064
	c0.095,1.903-0.064,5.833,2.622,5.833c0.027,0,0.055,0,0.083-0.001c1.933-0.045,3.463-1.647,3.418-3.58
	c-0.29-12.529,0.478-22.817,1.881-31.282c0.072-0.021,0.145-0.031,0.216-0.057c8.557-3.028,21.98-3.946,26.601-4.181
	c0.061,13.445-2.072,24.88-2.112,25.101c-0.345,1.902,1.283,3.983,3.185,4.329c1.898,0.342,3.723-0.915,4.069-2.816
	C42.967,73.646,50.73,29.678,33.697,9.253z M11.844,47.088c4.837-21.53,14.017-28.979,18.039-31.275
	c4.65,6.843,6.654,16.309,7.325,25.621C32.975,41.734,22.567,42.873,11.844,47.088z"/>
</svg>
