<svg xmlns="http://www.w3.org/2000/svg" viewBox="0 0 165 38" enable-background="new 0 0 165 38"><path d="M11.9 37.3c.7-2.5 1.4-5 2.1-7.9l-5.4.9v.5l2.1.6c0 .3 0 .5.1.8-2.4.4-4.7 1-7.1 1.1-.8 0-2.3-.9-2.5-1.6 0-.7.8-2.3 1.6-2.5 3.7-1.2 7.5-2.2 11.3-2.8 2.2-.3 3.5-1.1 4.7-2.9 2.8-4.2 5.7-8.3 8.7-12.4.8-1.1 2.3-1.6 3.4-2.4.2 1.3.6 2.7.5 3.9-.5 4.6-1.2 9.1-1.8 13.6.4.2.7.3 1.1.5.6-.5 1.3-.9 1.7-1.5 1.2-2.3 2-4.8 3.5-6.9 3.3-4.4 6.9-8.6 10.5-12.8.6-.7 2.1-1 3-.7.6.2 1.1 1.7 1 2.6-.3 2.5-.8 5-1.3 7.5-.2 1.2-.7 2.3-1.2 4.1 3.9-2.3 7.1-4.4 10.4-6.1 2.3-1.2 4.8-2.3 7.4-2.9 2.3-.5 3.5 1 2.4 3.1-1 2-2.4 4-4.1 5.5-4.1 3.6-8.4 6.8-12.4 10.7 1-.5 1.9-1 2.9-1.4 13-6.8 24.8-15.5 36.1-24.7.6-.5 1.3-1.2 2-1.4.8-.3 1.8-.1 2.7-.2-.3.8-.3 2-.9 2.5-4.4 3.8-9.1 7.4-13.5 11.3-4 3.5-7.9 7.2-11.7 11-1.2 1.2-2 2.9-3 4.4.2.4.3.8.5 1.2 3.7-.4 7.5-.4 11-1.3 13.5-3.5 27-7.4 40.5-11 12.8-3.4 25.7-5.7 39-5.2 2.2.1 4.3.5 6.5.7v1c-1 .2-2 .5-3 .5-12.9.9-25.9 1.9-38.5 5.3-14.2 3.9-28.5 8-42.8 11.7-3.7 1-7.7 1.5-11.6 1.3-4.8-.2-6-2.8-3.9-7.1.2-.5.5-.9 1.1-2.2-1.5.8-2.4 1.3-3.2 1.7-5.7 3-11.4 6.1-17.2 9-1.1.5-2.9.6-4 0-.7-.4-.5-2.2-.8-3.9-1.2 5.3-5.5 2.3-8.4 3.2-.6.2-2-1.7-2.7-2.8-1-1.5-.8-4.1-3.6-3.7-3.3.4-7.4-1.7-9.3 3.1-.8 1.9-1.8 3.7-2.7 5.5-.4-.2-.8-.3-1.2-.5zm23.5-9.7c.3.2.5.5.8.7 2.3-2.1 4.7-4.1 7-6.2.5-.4.9-1.8.8-1.9-2.2-1.7 0-3 .3-4.4.3-1.2.5-2.3.8-3.5-.3-.1-.6-.2-.9-.4-3.4 5-7.7 9.4-8.8 15.7zm29-14.1c-6.9 2.6-13.1 6.5-18.6 11.4 6.5-3.3 13.1-6.4 18.6-11.4zM20.2 26h6.7c.2-3.1.4-6.1.6-9-.2 0-.4-.1-.5-.1-2.2 2.8-4.3 5.6-6.8 9.1z"/></svg>